<?xml version="1.0" encoding="utf-8"?>
<!-- Generator: Adobe Illustrator 16.0.0, SVG Export Plug-In . SVG Version: 6.00 Build 0)  -->
<!DOCTYPE svg PUBLIC "-//W3C//DTD SVG 1.1//EN" "http://www.w3.org/Graphics/SVG/1.1/DTD/svg11.dtd">
<svg version="1.1" xmlns="http://www.w3.org/2000/svg" xmlns:xlink="http://www.w3.org/1999/xlink" x="0px" y="0px"
	 width="349.75px" height="143px" viewBox="0 0 349.75 143" enable-background="new 0 0 349.75 143" xml:space="preserve">
<g id="Layer_1">
	<path fill="none" stroke="#F1F2F2" stroke-width="2" stroke-miterlimit="10" d="M-1.725,40.317c0,0,46.344-62.706,106.601,0
		c27.434,29.394,34.293,73.484,76.914,73.484c42.621,0,66.626-29.883,66.626-44.58s-7.838-25.475-18.126-25.475
		c-10.288,0-17.636,14.696-17.636,25.964c0,11.269,20.086,45.07,66.136,44.091C324.84,112.822,351,82.938,351,82.938"/>
	<line fill="none" stroke="#F1F2F2" stroke-width="2" stroke-miterlimit="10" x1="5.373" y1="32.523" x2="5.373" y2="143"/>
	<line fill="none" stroke="#F1F2F2" stroke-width="2" stroke-miterlimit="10" x1="11.444" y1="25.348" x2="11.444" y2="143"/>
	<line fill="none" stroke="#F1F2F2" stroke-width="2" stroke-miterlimit="10" x1="18.689" y1="20.636" x2="18.689" y2="143"/>
	<line fill="none" stroke="#F1F2F2" stroke-width="2" stroke-miterlimit="10" x1="26.564" y1="16.784" x2="26.564" y2="143"/>
	<line fill="none" stroke="#F1F2F2" stroke-width="2" stroke-miterlimit="10" x1="33.278" y1="14.481" x2="33.278" y2="143"/>
	<line fill="none" stroke="#F1F2F2" stroke-width="2" stroke-miterlimit="10" x1="40.586" y1="12.964" x2="40.586" y2="143"/>
	<line fill="none" stroke="#F1F2F2" stroke-width="2" stroke-miterlimit="10" x1="49.202" y1="12.464" x2="49.202" y2="143"/>
	<line fill="none" stroke="#F1F2F2" stroke-width="2" stroke-miterlimit="10" x1="55.435" y1="12.964" x2="55.435" y2="143"/>
	<line fill="none" stroke="#F1F2F2" stroke-width="2" stroke-miterlimit="10" x1="62.79" y1="14.481" x2="62.79" y2="143"/>
	<line fill="none" stroke="#F1F2F2" stroke-width="2" stroke-miterlimit="10" x1="69.586" y1="16.784" x2="69.586" y2="143"/>
	<line fill="none" stroke="#F1F2F2" stroke-width="2" stroke-miterlimit="10" x1="77.058" y1="20.636" x2="77.058" y2="143"/>
	<line fill="none" stroke="#F1F2F2" stroke-width="2" stroke-miterlimit="10" x1="83.12" y1="23.954" x2="83.12" y2="143"/>
	<line fill="none" stroke="#F1F2F2" stroke-width="2" stroke-miterlimit="10" x1="89.993" y1="28.94" x2="89.993" y2="143"/>
	<line fill="none" stroke="#F1F2F2" stroke-width="2" stroke-miterlimit="10" x1="96.746" y1="32.523" x2="96.746" y2="143"/>
	<line fill="none" stroke="#F1F2F2" stroke-width="2" stroke-miterlimit="10" x1="104.876" y1="40.317" x2="104.876" y2="143"/>
	<line fill="none" stroke="#F1F2F2" stroke-width="2" stroke-miterlimit="10" x1="111.309" y1="51.174" x2="111.309" y2="143"/>
	<line fill="none" stroke="#F1F2F2" stroke-width="2" stroke-miterlimit="10" x1="119.341" y1="63.136" x2="119.341" y2="143"/>
	<line fill="none" stroke="#F1F2F2" stroke-width="2" stroke-miterlimit="10" x1="125.399" y1="72.956" x2="125.399" y2="143"/>
	<line fill="none" stroke="#F1F2F2" stroke-width="2" stroke-miterlimit="10" x1="132.489" y1="84.174" x2="132.489" y2="143"/>
	<line fill="none" stroke="#F1F2F2" stroke-width="2" stroke-miterlimit="10" x1="140.288" y1="91.658" x2="140.288" y2="143"/>
	<line fill="none" stroke="#F1F2F2" stroke-width="2" stroke-miterlimit="10" x1="146.469" y1="101.207" x2="146.469" y2="143"/>
	<line fill="none" stroke="#F1F2F2" stroke-width="2" stroke-miterlimit="10" x1="154.534" y1="107.978" x2="154.534" y2="143"/>
	<line fill="none" stroke="#F1F2F2" stroke-width="2" stroke-miterlimit="10" x1="160.651" y1="110.358" x2="160.651" y2="143"/>
	<line fill="none" stroke="#F1F2F2" stroke-width="2" stroke-miterlimit="10" x1="167.684" y1="112.564" x2="167.684" y2="143"/>
	<line fill="none" stroke="#F1F2F2" stroke-width="2" stroke-miterlimit="10" x1="174.638" y1="113.822" x2="174.638" y2="143"/>
	<line fill="none" stroke="#F1F2F2" stroke-width="2" stroke-miterlimit="10" x1="181.79" y1="113.802" x2="181.79" y2="143"/>
	<line fill="none" stroke="#F1F2F2" stroke-width="2" stroke-miterlimit="10" x1="187.954" y1="113.587" x2="187.954" y2="143"/>
	<line fill="none" stroke="#F1F2F2" stroke-width="2" stroke-miterlimit="10" x1="196.441" y1="112.564" x2="196.441" y2="143"/>
	<line fill="none" stroke="#F1F2F2" stroke-width="2" stroke-miterlimit="10" x1="203.352" y1="110.358" x2="203.352" y2="143"/>
	<line fill="none" stroke="#F1F2F2" stroke-width="2" stroke-miterlimit="10" x1="210.1" y1="107.978" x2="210.1" y2="143"/>
	<line fill="none" stroke="#F1F2F2" stroke-width="2" stroke-miterlimit="10" x1="216.757" y1="106.12" x2="216.757" y2="143"/>
	<line fill="none" stroke="#F1F2F2" stroke-width="2" stroke-miterlimit="10" x1="222.961" y1="101.207" x2="222.961" y2="143"/>
	<line fill="none" stroke="#F1F2F2" stroke-width="2" stroke-miterlimit="10" x1="231.007" y1="97.087" x2="231.007" y2="143"/>
	<line fill="none" stroke="#F1F2F2" stroke-width="2" stroke-miterlimit="10" x1="237.337" y1="103.068" x2="237.337" y2="143"/>
	<line fill="none" stroke="#F1F2F2" stroke-width="2" stroke-miterlimit="10" x1="244.275" y1="107.978" x2="244.275" y2="143"/>
	<line fill="none" stroke="#F1F2F2" stroke-width="2" stroke-miterlimit="10" x1="253.208" y1="110.358" x2="253.208" y2="143"/>
	<line fill="none" stroke="#F1F2F2" stroke-width="2" stroke-miterlimit="10" x1="259.797" y1="112.564" x2="259.797" y2="143"/>
	<line fill="none" stroke="#F1F2F2" stroke-width="2" stroke-miterlimit="10" x1="267.935" y1="113.587" x2="267.935" y2="143"/>
	<line fill="none" stroke="#F1F2F2" stroke-width="2" stroke-miterlimit="10" x1="272.691" y1="113.802" x2="272.691" y2="143"/>
	<line fill="none" stroke="#F1F2F2" stroke-width="2" stroke-miterlimit="10" x1="278.79" y1="113.802" x2="278.79" y2="143"/>
	<line fill="none" stroke="#F1F2F2" stroke-width="2" stroke-miterlimit="10" x1="287.51" y1="113.587" x2="287.51" y2="143"/>
	<line fill="none" stroke="#F1F2F2" stroke-width="2" stroke-miterlimit="10" x1="292.897" y1="112.564" x2="292.897" y2="143"/>
	<line fill="none" stroke="#F1F2F2" stroke-width="2" stroke-miterlimit="10" x1="300.974" y1="110.358" x2="300.974" y2="143"/>
	<line fill="none" stroke="#F1F2F2" stroke-width="2" stroke-miterlimit="10" x1="308.774" y1="107.978" x2="308.774" y2="143"/>
	<line fill="none" stroke="#F1F2F2" stroke-width="2" stroke-miterlimit="10" x1="316.161" y1="106.12" x2="316.161" y2="143"/>
	<line fill="none" stroke="#F1F2F2" stroke-width="2" stroke-miterlimit="10" x1="322.985" y1="103.068" x2="322.985" y2="143"/>
	<line fill="none" stroke="#F1F2F2" stroke-width="2" stroke-miterlimit="10" x1="331.157" y1="97.087" x2="331.157" y2="143"/>
	<line fill="none" stroke="#F1F2F2" stroke-width="2" stroke-miterlimit="10" x1="336.943" y1="94.869" x2="336.943" y2="143"/>
	<line fill="none" stroke="#F1F2F2" stroke-width="2" stroke-miterlimit="10" x1="343.945" y1="91.658" x2="343.945" y2="143"/>
</g>
<g id="Layer_2">
	<path fill="none" stroke="#F1F2F2" stroke-width="2" stroke-miterlimit="10" d="M-4.185,40.317c0,0,46.344-62.706,106.602,0
		c27.434,29.394,34.292,73.484,76.913,73.484c42.621,0,66.626-29.883,66.626-44.58s-7.839-25.475-18.126-25.475
		c-10.288,0-17.636,14.696-17.636,25.964c0,11.269,20.086,45.07,66.136,44.091c46.051-0.979,72.211-30.863,72.211-30.863"/>
</g>
<g id="Layer_3">
	<g>
		<path fill="#B84B4F" stroke="#B84B4F" stroke-miterlimit="10" d="M12.053,12.626l2.193-1.643c0,0,0.134-0.33,1.243-0.476
			c1.109-0.145,5.63-0.411,5.63-0.411s0.901-0.219,0.657,0.878c-0.245,1.096-0.512,2.973-0.512,2.973s-0.03,0.206-0.215,0.458
			c-0.08,0.107-0.187,0.223-0.334,0.334C20.228,15.104,5.017,26.504,5.017,26.504S4.47,26.99,3.995,26.354
			c-0.475-0.632-3.708-4.946-3.708-4.946l3.12-2.339l2.319,3.095l2.352-1.838L5.796,17.28l3.753-2.813l2.391,3.192l2.439-1.827
			L12.053,12.626z"/>
		<polyline fill="none" stroke="#000000" stroke-miterlimit="10" points="21.049,14.405 21.673,15.238 21.397,16.055 5.895,27.673 
			5.017,26.504 		"/>
		<polygon fill="#FFFFFF" stroke="#FFFFFF" stroke-miterlimit="10" points="21.715,11.266 3.126,25.196 3.848,26.163 21.408,13.002 
					"/>
	</g>
</g>
</svg>
