<?xml version="1.0" encoding="utf-8"?>
<!-- Generator: Adobe Illustrator 16.0.0, SVG Export Plug-In . SVG Version: 6.00 Build 0)  -->
<!DOCTYPE svg PUBLIC "-//W3C//DTD SVG 1.1//EN" "http://www.w3.org/Graphics/SVG/1.1/DTD/svg11.dtd">
<svg version="1.1" xmlns="http://www.w3.org/2000/svg" xmlns:xlink="http://www.w3.org/1999/xlink" x="0px" y="0px"
	 width="595.814px" height="245px" viewBox="0 0 595.814 245" enable-background="new 0 0 595.814 245" xml:space="preserve">
<g id="Layer_1">
	<path fill="none" stroke="#F1F2F2" stroke-width="2" stroke-miterlimit="10" d="M0,70.333c0,0,78.833-106.667,181.333,0
		c46.667,50,58.333,125,130.833,125S425.5,144.5,425.5,119.5s-13.333-43.333-30.833-43.333s-30,24.999-30,44.166
		s34.167,76.666,112.5,75S600,142.833,600,142.833"/>
	<line fill="none" stroke="#F1F2F2" stroke-width="2" stroke-miterlimit="10" x1="12.073" y1="57.075" x2="12.073" y2="245"/>
	<line fill="none" stroke="#F1F2F2" stroke-width="2" stroke-miterlimit="10" x1="22.4" y1="44.869" x2="22.4" y2="245"/>
	<line fill="none" stroke="#F1F2F2" stroke-width="2" stroke-miterlimit="10" x1="34.726" y1="36.854" x2="34.726" y2="245"/>
	<line fill="none" stroke="#F1F2F2" stroke-width="2" stroke-miterlimit="10" x1="48.121" y1="30.302" x2="48.121" y2="245"/>
	<line fill="none" stroke="#F1F2F2" stroke-width="2" stroke-miterlimit="10" x1="59.541" y1="26.385" x2="59.541" y2="245"/>
	<line fill="none" stroke="#F1F2F2" stroke-width="2" stroke-miterlimit="10" x1="71.973" y1="23.803" x2="71.973" y2="245"/>
	<line fill="none" stroke="#F1F2F2" stroke-width="2" stroke-miterlimit="10" x1="86.629" y1="22.953" x2="86.629" y2="245"/>
	<line fill="none" stroke="#F1F2F2" stroke-width="2" stroke-miterlimit="10" x1="97.231" y1="23.803" x2="97.231" y2="245"/>
	<line fill="none" stroke="#F1F2F2" stroke-width="2" stroke-miterlimit="10" x1="109.743" y1="26.385" x2="109.743" y2="245"/>
	<line fill="none" stroke="#F1F2F2" stroke-width="2" stroke-miterlimit="10" x1="121.302" y1="30.302" x2="121.302" y2="245"/>
	<line fill="none" stroke="#F1F2F2" stroke-width="2" stroke-miterlimit="10" x1="134.013" y1="36.854" x2="134.013" y2="245"/>
	<line fill="none" stroke="#F1F2F2" stroke-width="2" stroke-miterlimit="10" x1="144.325" y1="42.498" x2="144.325" y2="245"/>
	<line fill="none" stroke="#F1F2F2" stroke-width="2" stroke-miterlimit="10" x1="156.016" y1="50.98" x2="156.016" y2="245"/>
	<line fill="none" stroke="#F1F2F2" stroke-width="2" stroke-miterlimit="10" x1="167.502" y1="57.075" x2="167.502" y2="245"/>
	<line fill="none" stroke="#F1F2F2" stroke-width="2" stroke-miterlimit="10" x1="181.333" y1="70.333" x2="181.333" y2="245"/>
	<line fill="none" stroke="#F1F2F2" stroke-width="2" stroke-miterlimit="10" x1="192.275" y1="88.8" x2="192.275" y2="245"/>
	<line fill="none" stroke="#F1F2F2" stroke-width="2" stroke-miterlimit="10" x1="205.938" y1="109.147" x2="205.938" y2="245"/>
	<line fill="none" stroke="#F1F2F2" stroke-width="2" stroke-miterlimit="10" x1="216.243" y1="125.852" x2="216.243" y2="245"/>
	<line fill="none" stroke="#F1F2F2" stroke-width="2" stroke-miterlimit="10" x1="228.304" y1="144.935" x2="228.304" y2="245"/>
	<line fill="none" stroke="#F1F2F2" stroke-width="2" stroke-miterlimit="10" x1="241.57" y1="157.666" x2="241.57" y2="245"/>
	<line fill="none" stroke="#F1F2F2" stroke-width="2" stroke-miterlimit="10" x1="252.083" y1="173.909" x2="252.083" y2="245"/>
	<line fill="none" stroke="#F1F2F2" stroke-width="2" stroke-miterlimit="10" x1="265.803" y1="185.426" x2="265.803" y2="245"/>
	<line fill="none" stroke="#F1F2F2" stroke-width="2" stroke-miterlimit="10" x1="276.209" y1="189.475" x2="276.209" y2="245"/>
	<line fill="none" stroke="#F1F2F2" stroke-width="2" stroke-miterlimit="10" x1="288.172" y1="193.228" x2="288.172" y2="245"/>
	<line fill="none" stroke="#F1F2F2" stroke-width="2" stroke-miterlimit="10" x1="300" y1="195.368" x2="300" y2="245"/>
	<line fill="none" stroke="#F1F2F2" stroke-width="2" stroke-miterlimit="10" x1="312.167" y1="195.333" x2="312.167" y2="245"/>
	<line fill="none" stroke="#F1F2F2" stroke-width="2" stroke-miterlimit="10" x1="322.651" y1="194.967" x2="322.651" y2="245"/>
	<line fill="none" stroke="#F1F2F2" stroke-width="2" stroke-miterlimit="10" x1="337.089" y1="193.228" x2="337.089" y2="245"/>
	<line fill="none" stroke="#F1F2F2" stroke-width="2" stroke-miterlimit="10" x1="348.845" y1="189.475" x2="348.845" y2="245"/>
	<line fill="none" stroke="#F1F2F2" stroke-width="2" stroke-miterlimit="10" x1="360.323" y1="185.426" x2="360.323" y2="245"/>
	<line fill="none" stroke="#F1F2F2" stroke-width="2" stroke-miterlimit="10" x1="371.646" y1="182.266" x2="371.646" y2="245"/>
	<line fill="none" stroke="#F1F2F2" stroke-width="2" stroke-miterlimit="10" x1="382.2" y1="173.909" x2="382.2" y2="245"/>
	<line fill="none" stroke="#F1F2F2" stroke-width="2" stroke-miterlimit="10" x1="395.887" y1="166.9" x2="395.887" y2="245"/>
	<line fill="none" stroke="#F1F2F2" stroke-width="2" stroke-miterlimit="10" x1="406.654" y1="177.074" x2="406.654" y2="245"/>
	<line fill="none" stroke="#F1F2F2" stroke-width="2" stroke-miterlimit="10" x1="418.457" y1="185.426" x2="418.457" y2="245"/>
	<line fill="none" stroke="#F1F2F2" stroke-width="2" stroke-miterlimit="10" x1="433.65" y1="189.475" x2="433.65" y2="245"/>
	<line fill="none" stroke="#F1F2F2" stroke-width="2" stroke-miterlimit="10" x1="444.859" y1="193.228" x2="444.859" y2="245"/>
	<line fill="none" stroke="#F1F2F2" stroke-width="2" stroke-miterlimit="10" x1="458.703" y1="194.967" x2="458.703" y2="245"/>
	<line fill="none" stroke="#F1F2F2" stroke-width="2" stroke-miterlimit="10" x1="466.793" y1="195.333" x2="466.793" y2="245"/>
	<line fill="none" stroke="#F1F2F2" stroke-width="2" stroke-miterlimit="10" x1="477.167" y1="195.333" x2="477.167" y2="245"/>
	<line fill="none" stroke="#F1F2F2" stroke-width="2" stroke-miterlimit="10" x1="492" y1="194.967" x2="492" y2="245"/>
	<line fill="none" stroke="#F1F2F2" stroke-width="2" stroke-miterlimit="10" x1="501.164" y1="193.228" x2="501.164" y2="245"/>
	<line fill="none" stroke="#F1F2F2" stroke-width="2" stroke-miterlimit="10" x1="514.903" y1="189.475" x2="514.903" y2="245"/>
	<line fill="none" stroke="#F1F2F2" stroke-width="2" stroke-miterlimit="10" x1="528.173" y1="185.426" x2="528.173" y2="245"/>
	<line fill="none" stroke="#F1F2F2" stroke-width="2" stroke-miterlimit="10" x1="540.737" y1="182.266" x2="540.737" y2="245"/>
	<line fill="none" stroke="#F1F2F2" stroke-width="2" stroke-miterlimit="10" x1="552.346" y1="177.074" x2="552.346" y2="245"/>
	<line fill="none" stroke="#F1F2F2" stroke-width="2" stroke-miterlimit="10" x1="566.246" y1="166.9" x2="566.246" y2="245"/>
	<line fill="none" stroke="#F1F2F2" stroke-width="2" stroke-miterlimit="10" x1="576.089" y1="163.128" x2="576.089" y2="245"/>
	<line fill="none" stroke="#F1F2F2" stroke-width="2" stroke-miterlimit="10" x1="588" y1="157.666" x2="588" y2="245"/>
</g>
<g id="Layer_2">
	<path fill="none" stroke="#F1F2F2" stroke-width="2" stroke-miterlimit="10" d="M-4.185,70.333c0,0,78.833-106.667,181.333,0
		c46.667,50,58.333,125,130.833,125c72.5,0,113.334-50.833,113.334-75.833s-13.334-43.333-30.834-43.333s-30,24.999-30,44.166
		s34.168,76.666,112.5,75c78.334-1.666,122.834-52.5,122.834-52.5"/>
</g>
<g id="Layer_3">
	<g>
		<path fill="#B84B4F" stroke="#B84B4F" stroke-miterlimit="10" d="M14.496,38.302l2.516-1.885c0,0,0.154-0.379,1.425-0.546
			c1.272-0.166,6.457-0.472,6.457-0.472s1.034-0.251,0.754,1.007c-0.28,1.257-0.588,3.408-0.588,3.408s-0.035,0.238-0.247,0.526
			c-0.091,0.124-0.214,0.256-0.382,0.383C23.872,41.143,6.427,54.217,6.427,54.217s-0.628,0.557-1.173-0.17
			c-0.544-0.727-4.252-5.674-4.252-5.674l3.578-2.683l2.66,3.55l2.698-2.107L7.32,43.639l4.304-3.226l2.743,3.659l2.796-2.094
			L14.496,38.302z"/>
		<polyline fill="none" stroke="#000000" stroke-miterlimit="10" points="24.813,40.341 25.529,41.297 25.212,42.232 7.433,55.558 
			6.427,54.217 		"/>
		<polygon fill="#FFFFFF" stroke="#FFFFFF" stroke-miterlimit="10" points="25.577,36.74 4.258,52.718 5.086,53.825 25.225,38.731 
					"/>
	</g>
</g>
</svg>
