<?xml version="1.0" encoding="utf-8"?>
<!-- Generator: Adobe Illustrator 16.0.0, SVG Export Plug-In . SVG Version: 6.00 Build 0)  -->
<!DOCTYPE svg PUBLIC "-//W3C//DTD SVG 1.1//EN" "http://www.w3.org/Graphics/SVG/1.1/DTD/svg11.dtd">
<svg version="1.1" xmlns="http://www.w3.org/2000/svg" xmlns:xlink="http://www.w3.org/1999/xlink" x="0px" y="0px" width="768px"
	 height="143px" viewBox="0 0 768 143" enable-background="new 0 0 768 143" xml:space="preserve">
<g id="Layer_1">
	<path fill="none" stroke="#F1F2F2" stroke-width="2" stroke-miterlimit="10" d="M-1.725,40.317c0,0,46.344-62.706,106.601,0
		c27.434,29.394,34.293,73.484,76.914,73.484c42.621,0,66.626-29.883,66.626-44.58s-7.838-25.475-18.126-25.475
		c-10.288,0-17.636,14.696-17.636,25.964c0,11.269,20.086,45.07,66.136,44.091C324.84,112.822,351,82.938,351,82.938"/>
	<line fill="none" stroke="#F1F2F2" stroke-width="2" stroke-miterlimit="10" x1="5.373" y1="32.523" x2="5.373" y2="143"/>
	<line fill="none" stroke="#F1F2F2" stroke-width="2" stroke-miterlimit="10" x1="11.444" y1="25.348" x2="11.444" y2="143"/>
	<line fill="none" stroke="#F1F2F2" stroke-width="2" stroke-miterlimit="10" x1="18.689" y1="20.636" x2="18.689" y2="143"/>
	<line fill="none" stroke="#F1F2F2" stroke-width="2" stroke-miterlimit="10" x1="26.564" y1="16.784" x2="26.564" y2="143"/>
	<line fill="none" stroke="#F1F2F2" stroke-width="2" stroke-miterlimit="10" x1="33.278" y1="14.481" x2="33.278" y2="143"/>
	<line fill="none" stroke="#F1F2F2" stroke-width="2" stroke-miterlimit="10" x1="40.586" y1="12.964" x2="40.586" y2="143"/>
	<line fill="none" stroke="#F1F2F2" stroke-width="2" stroke-miterlimit="10" x1="49.202" y1="12.464" x2="49.202" y2="143"/>
	<line fill="none" stroke="#F1F2F2" stroke-width="2" stroke-miterlimit="10" x1="55.435" y1="12.964" x2="55.435" y2="143"/>
	<line fill="none" stroke="#F1F2F2" stroke-width="2" stroke-miterlimit="10" x1="62.79" y1="14.481" x2="62.79" y2="143"/>
	<line fill="none" stroke="#F1F2F2" stroke-width="2" stroke-miterlimit="10" x1="69.586" y1="16.784" x2="69.586" y2="143"/>
	<line fill="none" stroke="#F1F2F2" stroke-width="2" stroke-miterlimit="10" x1="77.058" y1="20.636" x2="77.058" y2="143"/>
	<line fill="none" stroke="#F1F2F2" stroke-width="2" stroke-miterlimit="10" x1="83.12" y1="23.954" x2="83.12" y2="143"/>
	<line fill="none" stroke="#F1F2F2" stroke-width="2" stroke-miterlimit="10" x1="89.993" y1="28.94" x2="89.993" y2="143"/>
	<line fill="none" stroke="#F1F2F2" stroke-width="2" stroke-miterlimit="10" x1="96.746" y1="32.523" x2="96.746" y2="143"/>
	<line fill="none" stroke="#F1F2F2" stroke-width="2" stroke-miterlimit="10" x1="104.876" y1="40.317" x2="104.876" y2="143"/>
	<line fill="none" stroke="#F1F2F2" stroke-width="2" stroke-miterlimit="10" x1="111.309" y1="51.174" x2="111.309" y2="143"/>
	<line fill="none" stroke="#F1F2F2" stroke-width="2" stroke-miterlimit="10" x1="119.341" y1="63.136" x2="119.341" y2="143"/>
	<line fill="none" stroke="#F1F2F2" stroke-width="2" stroke-miterlimit="10" x1="125.399" y1="72.956" x2="125.399" y2="143"/>
	<line fill="none" stroke="#F1F2F2" stroke-width="2" stroke-miterlimit="10" x1="132.489" y1="84.174" x2="132.489" y2="143"/>
	<line fill="none" stroke="#F1F2F2" stroke-width="2" stroke-miterlimit="10" x1="140.288" y1="91.658" x2="140.288" y2="143"/>
	<line fill="none" stroke="#F1F2F2" stroke-width="2" stroke-miterlimit="10" x1="146.469" y1="101.207" x2="146.469" y2="143"/>
	<line fill="none" stroke="#F1F2F2" stroke-width="2" stroke-miterlimit="10" x1="154.534" y1="107.978" x2="154.534" y2="143"/>
	<line fill="none" stroke="#F1F2F2" stroke-width="2" stroke-miterlimit="10" x1="160.651" y1="110.358" x2="160.651" y2="143"/>
	<line fill="none" stroke="#F1F2F2" stroke-width="2" stroke-miterlimit="10" x1="167.684" y1="112.564" x2="167.684" y2="143"/>
	<line fill="none" stroke="#F1F2F2" stroke-width="2" stroke-miterlimit="10" x1="174.638" y1="113.822" x2="174.638" y2="143"/>
	<line fill="none" stroke="#F1F2F2" stroke-width="2" stroke-miterlimit="10" x1="181.79" y1="113.802" x2="181.79" y2="143"/>
	<line fill="none" stroke="#F1F2F2" stroke-width="2" stroke-miterlimit="10" x1="187.954" y1="113.587" x2="187.954" y2="143"/>
	<line fill="none" stroke="#F1F2F2" stroke-width="2" stroke-miterlimit="10" x1="196.441" y1="112.564" x2="196.441" y2="143"/>
	<line fill="none" stroke="#F1F2F2" stroke-width="2" stroke-miterlimit="10" x1="203.352" y1="110.358" x2="203.352" y2="143"/>
	<line fill="none" stroke="#F1F2F2" stroke-width="2" stroke-miterlimit="10" x1="210.1" y1="107.978" x2="210.1" y2="143"/>
	<line fill="none" stroke="#F1F2F2" stroke-width="2" stroke-miterlimit="10" x1="216.757" y1="106.12" x2="216.757" y2="143"/>
	<line fill="none" stroke="#F1F2F2" stroke-width="2" stroke-miterlimit="10" x1="222.961" y1="101.207" x2="222.961" y2="143"/>
	<line fill="none" stroke="#F1F2F2" stroke-width="2" stroke-miterlimit="10" x1="231.007" y1="97.087" x2="231.007" y2="143"/>
	<line fill="none" stroke="#F1F2F2" stroke-width="2" stroke-miterlimit="10" x1="237.337" y1="103.068" x2="237.337" y2="143"/>
	<line fill="none" stroke="#F1F2F2" stroke-width="2" stroke-miterlimit="10" x1="244.275" y1="107.978" x2="244.275" y2="143"/>
	<line fill="none" stroke="#F1F2F2" stroke-width="2" stroke-miterlimit="10" x1="253.208" y1="110.358" x2="253.208" y2="143"/>
	<line fill="none" stroke="#F1F2F2" stroke-width="2" stroke-miterlimit="10" x1="259.797" y1="112.564" x2="259.797" y2="143"/>
	<line fill="none" stroke="#F1F2F2" stroke-width="2" stroke-miterlimit="10" x1="267.935" y1="113.587" x2="267.935" y2="143"/>
	<line fill="none" stroke="#F1F2F2" stroke-width="2" stroke-miterlimit="10" x1="272.691" y1="113.802" x2="272.691" y2="143"/>
	<line fill="none" stroke="#F1F2F2" stroke-width="2" stroke-miterlimit="10" x1="278.79" y1="113.802" x2="278.79" y2="143"/>
	<line fill="none" stroke="#F1F2F2" stroke-width="2" stroke-miterlimit="10" x1="287.51" y1="113.587" x2="287.51" y2="143"/>
	<line fill="none" stroke="#F1F2F2" stroke-width="2" stroke-miterlimit="10" x1="292.897" y1="112.564" x2="292.897" y2="143"/>
	<line fill="none" stroke="#F1F2F2" stroke-width="2" stroke-miterlimit="10" x1="300.974" y1="110.358" x2="300.974" y2="143"/>
	<line fill="none" stroke="#F1F2F2" stroke-width="2" stroke-miterlimit="10" x1="308.774" y1="107.978" x2="308.774" y2="143"/>
	<line fill="none" stroke="#F1F2F2" stroke-width="2" stroke-miterlimit="10" x1="316.161" y1="106.12" x2="316.161" y2="143"/>
	<line fill="none" stroke="#F1F2F2" stroke-width="2" stroke-miterlimit="10" x1="322.985" y1="103.068" x2="322.985" y2="143"/>
	<line fill="none" stroke="#F1F2F2" stroke-width="2" stroke-miterlimit="10" x1="331.157" y1="97.087" x2="331.157" y2="143"/>
	<line fill="none" stroke="#F1F2F2" stroke-width="2" stroke-miterlimit="10" x1="336.943" y1="94.869" x2="336.943" y2="143"/>
	<line fill="none" stroke="#F1F2F2" stroke-width="2" stroke-miterlimit="10" x1="343.945" y1="91.658" x2="343.945" y2="143"/>
	<line fill="none" stroke="#F1F2F2" stroke-width="2" stroke-miterlimit="10" x1="482.362" y1="197.12" x2="482.362" y2="80.5"/>
	<line fill="none" stroke="#F1F2F2" stroke-width="2" stroke-miterlimit="10" x1="476.292" y1="204.695" x2="476.292" y2="80.5"/>
	<line fill="none" stroke="#F1F2F2" stroke-width="2" stroke-miterlimit="10" x1="469.046" y1="209.669" x2="469.046" y2="80.5"/>
	<line fill="none" stroke="#F1F2F2" stroke-width="2" stroke-miterlimit="10" x1="461.171" y1="213.736" x2="461.171" y2="80.5"/>
	<line fill="none" stroke="#F1F2F2" stroke-width="2" stroke-miterlimit="10" x1="454.458" y1="216.166" x2="454.458" y2="80.5"/>
	<line fill="none" stroke="#F1F2F2" stroke-width="2" stroke-miterlimit="10" x1="447.149" y1="217.768" x2="447.149" y2="80.5"/>
	<line fill="none" stroke="#F1F2F2" stroke-width="2" stroke-miterlimit="10" x1="438.533" y1="218.295" x2="438.533" y2="80.5"/>
	<line fill="none" stroke="#F1F2F2" stroke-width="2" stroke-miterlimit="10" x1="432.3" y1="217.768" x2="432.3" y2="80.5"/>
	<line fill="none" stroke="#F1F2F2" stroke-width="2" stroke-miterlimit="10" x1="424.945" y1="216.166" x2="424.945" y2="80.5"/>
	<line fill="none" stroke="#F1F2F2" stroke-width="2" stroke-miterlimit="10" x1="418.149" y1="213.736" x2="418.149" y2="80.5"/>
	<line fill="none" stroke="#F1F2F2" stroke-width="2" stroke-miterlimit="10" x1="410.677" y1="209.669" x2="410.677" y2="80.5"/>
	<line fill="none" stroke="#F1F2F2" stroke-width="2" stroke-miterlimit="10" x1="404.615" y1="206.166" x2="404.615" y2="80.5"/>
	<line fill="none" stroke="#F1F2F2" stroke-width="2" stroke-miterlimit="10" x1="397.743" y1="200.901" x2="397.743" y2="80.5"/>
	<line fill="none" stroke="#F1F2F2" stroke-width="2" stroke-miterlimit="10" x1="390.989" y1="197.12" x2="390.989" y2="80.5"/>
	<line fill="none" stroke="#F1F2F2" stroke-width="2" stroke-miterlimit="10" x1="382.858" y1="188.894" x2="382.858" y2="80.5"/>
	<line fill="none" stroke="#F1F2F2" stroke-width="2" stroke-miterlimit="10" x1="376.427" y1="177.433" x2="376.427" y2="80.5"/>
	<line fill="none" stroke="#F1F2F2" stroke-width="2" stroke-miterlimit="10" x1="368.394" y1="164.805" x2="368.394" y2="80.5"/>
	<line fill="none" stroke="#F1F2F2" stroke-width="2" stroke-miterlimit="10" x1="362.337" y1="154.439" x2="362.337" y2="80.5"/>
	<line fill="none" stroke="#F1F2F2" stroke-width="2" stroke-miterlimit="10" x1="355.246" y1="142.598" x2="355.246" y2="80.5"/>
	<g>
		<line fill="none" stroke="#F1F2F2" stroke-width="2" stroke-miterlimit="10" x1="617.479" y1="196.077" x2="617.479" y2="80.5"/>
		<line fill="none" stroke="#F1F2F2" stroke-width="2" stroke-miterlimit="10" x1="611.408" y1="203.584" x2="611.408" y2="80.5"/>
		<line fill="none" stroke="#F1F2F2" stroke-width="2" stroke-miterlimit="10" x1="604.162" y1="208.514" x2="604.162" y2="80.5"/>
		<line fill="none" stroke="#F1F2F2" stroke-width="2" stroke-miterlimit="10" x1="596.287" y1="212.544" x2="596.287" y2="80.5"/>
		<line fill="none" stroke="#F1F2F2" stroke-width="2" stroke-miterlimit="10" x1="589.574" y1="214.953" x2="589.574" y2="80.5"/>
		<line fill="none" stroke="#F1F2F2" stroke-width="2" stroke-miterlimit="10" x1="582.266" y1="216.54" x2="582.266" y2="80.5"/>
		<line fill="none" stroke="#F1F2F2" stroke-width="2" stroke-miterlimit="10" x1="573.649" y1="217.062" x2="573.649" y2="80.5"/>
		<line fill="none" stroke="#F1F2F2" stroke-width="2" stroke-miterlimit="10" x1="567.416" y1="216.54" x2="567.416" y2="80.5"/>
		<line fill="none" stroke="#F1F2F2" stroke-width="2" stroke-miterlimit="10" x1="560.062" y1="214.953" x2="560.062" y2="80.5"/>
		<line fill="none" stroke="#F1F2F2" stroke-width="2" stroke-miterlimit="10" x1="553.266" y1="212.544" x2="553.266" y2="80.5"/>
		<line fill="none" stroke="#F1F2F2" stroke-width="2" stroke-miterlimit="10" x1="545.793" y1="208.514" x2="545.793" y2="80.5"/>
		<line fill="none" stroke="#F1F2F2" stroke-width="2" stroke-miterlimit="10" x1="539.731" y1="205.043" x2="539.731" y2="80.5"/>
		<line fill="none" stroke="#F1F2F2" stroke-width="2" stroke-miterlimit="10" x1="532.859" y1="199.825" x2="532.859" y2="80.5"/>
		<line fill="none" stroke="#F1F2F2" stroke-width="2" stroke-miterlimit="10" x1="526.105" y1="196.077" x2="526.105" y2="80.5"/>
		<line fill="none" stroke="#F1F2F2" stroke-width="2" stroke-miterlimit="10" x1="517.975" y1="187.924" x2="517.975" y2="80.5"/>
		<line fill="none" stroke="#F1F2F2" stroke-width="2" stroke-miterlimit="10" x1="511.543" y1="176.565" x2="511.543" y2="80.5"/>
		<line fill="none" stroke="#F1F2F2" stroke-width="2" stroke-miterlimit="10" x1="503.51" y1="164.051" x2="503.51" y2="80.5"/>
		<line fill="none" stroke="#F1F2F2" stroke-width="2" stroke-miterlimit="10" x1="497.453" y1="153.778" x2="497.453" y2="80.5"/>
		<line fill="none" stroke="#F1F2F2" stroke-width="2" stroke-miterlimit="10" x1="490.362" y1="142.043" x2="490.362" y2="80.5"/>
	</g>
	<line fill="none" stroke="#F1F2F2" stroke-width="2" stroke-miterlimit="10" x1="751.405" y1="197.484" x2="751.405" y2="80.162"/>
	<line fill="none" stroke="#F1F2F2" stroke-width="2" stroke-miterlimit="10" x1="745.335" y1="205.104" x2="745.335" y2="80.162"/>
	<line fill="none" stroke="#F1F2F2" stroke-width="2" stroke-miterlimit="10" x1="738.089" y1="210.109" x2="738.089" y2="80.162"/>
	<line fill="none" stroke="#F1F2F2" stroke-width="2" stroke-miterlimit="10" x1="730.214" y1="214.2" x2="730.214" y2="80.162"/>
	<line fill="none" stroke="#F1F2F2" stroke-width="2" stroke-miterlimit="10" x1="723.501" y1="216.646" x2="723.501" y2="80.162"/>
	<line fill="none" stroke="#F1F2F2" stroke-width="2" stroke-miterlimit="10" x1="716.192" y1="218.256" x2="716.192" y2="80.162"/>
	<line fill="none" stroke="#F1F2F2" stroke-width="2" stroke-miterlimit="10" x1="707.576" y1="218.787" x2="707.576" y2="80.162"/>
	<line fill="none" stroke="#F1F2F2" stroke-width="2" stroke-miterlimit="10" x1="701.343" y1="218.256" x2="701.343" y2="80.162"/>
	<line fill="none" stroke="#F1F2F2" stroke-width="2" stroke-miterlimit="10" x1="693.988" y1="216.646" x2="693.988" y2="80.162"/>
	<line fill="none" stroke="#F1F2F2" stroke-width="2" stroke-miterlimit="10" x1="687.192" y1="214.2" x2="687.192" y2="80.162"/>
	<line fill="none" stroke="#F1F2F2" stroke-width="2" stroke-miterlimit="10" x1="679.72" y1="210.109" x2="679.72" y2="80.162"/>
	<line fill="none" stroke="#F1F2F2" stroke-width="2" stroke-miterlimit="10" x1="673.658" y1="206.586" x2="673.658" y2="80.162"/>
	<line fill="none" stroke="#F1F2F2" stroke-width="2" stroke-miterlimit="10" x1="666.786" y1="201.289" x2="666.786" y2="80.162"/>
	<line fill="none" stroke="#F1F2F2" stroke-width="2" stroke-miterlimit="10" x1="660.032" y1="197.484" x2="660.032" y2="80.162"/>
	<line fill="none" stroke="#F1F2F2" stroke-width="2" stroke-miterlimit="10" x1="651.901" y1="189.208" x2="651.901" y2="80.162"/>
	<line fill="none" stroke="#F1F2F2" stroke-width="2" stroke-miterlimit="10" x1="645.47" y1="177.679" x2="645.47" y2="80.162"/>
	<line fill="none" stroke="#F1F2F2" stroke-width="2" stroke-miterlimit="10" x1="637.437" y1="164.975" x2="637.437" y2="80.162"/>
	<line fill="none" stroke="#F1F2F2" stroke-width="2" stroke-miterlimit="10" x1="631.38" y1="154.548" x2="631.38" y2="80.162"/>
	<line fill="none" stroke="#F1F2F2" stroke-width="2" stroke-miterlimit="10" x1="624.289" y1="142.634" x2="624.289" y2="80.162"/>
	<line fill="none" stroke="#F1F2F2" stroke-width="2" stroke-miterlimit="10" x1="764.929" y1="206.491" x2="764.929" y2="81.549"/>
	<line fill="none" stroke="#F1F2F2" stroke-width="2" stroke-miterlimit="10" x1="757.683" y1="211.496" x2="757.683" y2="81.549"/>
	<line fill="none" stroke="#F1F2F2" stroke-width="2" stroke-miterlimit="10" x1="349.75" y1="145.855" x2="349.75" y2="83.758"/>
</g>
<g id="Layer_2">
	<path fill="none" stroke="#F1F2F2" stroke-width="2" stroke-miterlimit="10" d="M-4.185,40.317c0,0,46.344-62.706,106.602,0
		c27.434,29.394,34.292,73.484,76.913,73.484c42.621,0,66.626-29.883,66.626-44.58s-7.839-25.475-18.126-25.475
		c-10.288,0-17.636,14.696-17.636,25.964c0,11.269,20.086,45.07,66.136,44.091c46.051-0.979,72.211-30.863,72.211-30.863
		S351,78,359,78s409,0.667,409,0.667"/>
	<path fill="none" stroke="#F1F2F2" stroke-width="2" stroke-miterlimit="10" d="M348.54,85.455c0,0-2.04-4.955,8.46-4.955
		s411,0,411,0"/>
</g>
<g id="Layer_4">
	<path fill="none" d="M0.302,20.482c0,0,15.768-16.784,48.9-16.784s55.813,18.666,70.139,36s24.992,43.316,38.326,55.658
		s30.287,9.549,30.287,9.549s27.269-3.516,43.053-23.225c4.493-6.982,6.33-11.482,6.33-11.482S229.5,34,222.961,70.698
		c0.039,4,2.051,9.832,8.046,17.174s25.072,18.783,47.783,17.305s26.181-3.455,44.196-13.717s25.555-21.762,25.555-21.762L768,68.5"
		/>
</g>
<g id="Layer_3">
	<g>
		<path fill="#B84B4F" stroke="#B84B4F" stroke-miterlimit="10" d="M10.298,0.155l1.866-0.053c0,0,0.204-0.132,0.878,0.224
			c0.674,0.354,3.295,1.982,3.295,1.982s0.588,0.232,0.021,0.747c-0.567,0.514-1.453,1.453-1.453,1.453s-0.098,0.104-0.3,0.171
			c-0.087,0.027-0.191,0.05-0.317,0.054C13.875,4.745,0.931,5.116,0.931,5.116S0.436,5.173,0.42,4.631
			C0.404,4.094,0.3,0.423,0.3,0.423l2.655-0.077L3.03,2.979l2.031-0.099L4.988,0.289l3.194-0.092l0.077,2.715l2.076-0.059
			L10.298,0.155z"/>
		<polyline fill="none" stroke="#000000" stroke-miterlimit="10" points="14.606,4.68 14.626,5.388 14.152,5.734 0.96,6.111 
			0.931,5.116 		"/>
		<polygon fill="#FFFFFF" stroke="#FFFFFF" stroke-miterlimit="10" points="16.21,3.193 0.392,3.646 0.414,4.468 15.357,4.039 		"/>
	</g>
</g>
</svg>
